# xmcd CD database file
#
# Track frame offsets:
#	150
#	11755
#	24642
#	38550
#	54230
#	68395
#	78500
#	92170
#	104325
#	114460
#	124057
#	139097
#	154110
#	167392
#	181802
#	193922
#	204690
#	217712
#	231490
#	242920
#	256780
#
# Disc length: 3609 seconds
#
# Revision: 0
# Processed by: cddbd v1.5PL3 Copyright (c) Steve Scherf et al.
# Submitted via: CDex 1.51
#
DISCID=140e1715
DTITLE=Doris Day - It압 Magic
DYEAR=2003
DGENRE=Jazz
TTITLE0=It압 a great feeling
TTITLE1=Someone like you
TTITLE2=Love somebody
TTITLE3=It압 magic
TTITLE4=Put 안m in a box, tie 안m with a ribbon
TTITLE5=I앐 in love
TTITLE6=The River Seine
TTITLE7=Canadian Capers
TTITLE8=Quicksilver
TTITLE9=(There압 a) Bluebird on your windmill
TTITLE10=Imagination
TTITLE11=If you will marry me
TTITLE12=I didn앖 slip - I wasn앖 pushed - I fell
TTITLE13=It압 better to conceal than reveal
TTITLE14=I don앖 wanna be kissed by anyone but you
TTITLE15=Save a little sunbeam (for a rainy, rainy day)
TTITLE16=Mama, what앏l I do
TTITLE17=I said my pajamas (and put on my prayers)
TTITLE18=Enjoy yourself (it압 later than you think)
TTITLE19=The very thought of you
TTITLE20=I may be wrong (but I think youre wonderful)
EXTD=YEAR: 2003
EXTT0=
EXTT1=
EXTT2=
EXTT3=
EXTT4=
EXTT5=
EXTT6=
EXTT7=
EXTT8=
EXTT9=
EXTT10=
EXTT11=
EXTT12=
EXTT13=
EXTT14=
EXTT15=
EXTT16=
EXTT17=
EXTT18=
EXTT19=
EXTT20=
PLAYORDER=
